<?xml version="1.0" encoding="utf-8"?>
<!-- Generator: Adobe Illustrator 18.0.0, SVG Export Plug-In . SVG Version: 6.00 Build 0)  -->
<!DOCTYPE svg PUBLIC "-//W3C//DTD SVG 1.1//EN" "http://www.w3.org/Graphics/SVG/1.1/DTD/svg11.dtd">
<svg version="1.1" id="Layer_1" xmlns="http://www.w3.org/2000/svg" xmlns:xlink="http://www.w3.org/1999/xlink" x="0px" y="0px"
	 viewBox="0 0 337 36.6" enable-background="new 0 0 337 36.6" xml:space="preserve">
<defs>
	
	<link  type="text/css" rel="stylesheet" xmlns="http://www.w3.org/1999/xhtml" href="svg-logo.css"></link>
</defs>
<g>
	<path fill="#C33435" d="M9.6,0.1L0,36.2h44.2L53.8,0L9.6,0.1z"/>
	<path fill="#FFFFFF" d="M33.4,4.9h-7.5c0,0-2.5,8.8-2.7,9.5c-0.9,0-11.3,0-11.3,0l-2.2,7.7c0,0,9.7,0,11.3,0
		c-0.4,1.3-2.8,9.5-2.8,9.5l9.3,0c0,0,2.5-8.8,2.7-9.5c0.9,0,11.3,0,11.3,0l2.2-7.7c0,0-9.7,0-11.3,0c0.4-1.3,2.8-9.5,2.8-9.5h-0.9
		L33.4,4.9z"/>
	<path d="M335.4,6.5c0,0-243-0.3-248-0.3c-5.3,0-6.7,0.5-7.3,2.5c-0.4,1.4,0.1,2,1.9,2.2c0.5,0-0.9,0,7.1,0.3c4,0.2,5.4,0.3,7.1,0.5
		c5.4,0.9,6.7,2.4,5.4,6.7c-1.1,3.6-2.4,5.3-5,6.5c-3.2,1.5-6.7,1.9-14.9,1.9c-7.3,0-20,0.2-20,0.2l1.5-5.5c0,0,15.1,0,19.4,0
		c3.5,0,3.8,0,4.5-0.2c1.8-0.3,2.7-1,3.1-2.4c0.4-1.3,0-1.9-1.5-2.2c-0.5-0.1-1.4-0.2-3-0.2l-1.3,0l-1.3-0.1l-1.3,0
		c-6.9-0.3-9-0.5-11-1.3c-2.7-1-3.3-2.9-2.2-6.5c0.9-3.1,2.6-5,5.3-6c3.1-1.2,6.8-1.6,14.7-1.6C96.6,0.9,337,1.1,337,1.1L335.4,6.5z
		"/>
	<path d="M132.3,26.6h-7.8l4.2-13.7h-7.4l1.3-4.1h23.1l-1.3,4.1h-7.9L132.3,26.6z"/>
	<path d="M171.6,20.1h-7.3l6-7.7L171.6,20.1z M172.1,23.5l0.6,3.1h8l-3.4-17.8h-11.8l-14.2,17.8h8.1l2.3-3.1H172.1z"/>
	<path d="M202.7,22.5l2.9-9.6h6.3c2.8,0,3.8,0.5,3.6,1.9c-0.1,0.6-0.3,1.6-0.6,2.7c-0.1,0.3-0.2,0.6-0.4,1.2c-0.2,0.5-0.3,0.7-0.4,1
		c-0.4,0.9-0.6,1.3-1.2,1.7c-1,0.8-1.9,1.1-3.9,1.1L202.7,22.5L202.7,22.5z M193.6,26.6h14.8c6.6,0,10.1-1.1,12.3-3.8
		c0.7-0.9,1.1-1.9,1.9-4.1l0.6-1.9c0.3-0.8,0.5-1.4,0.5-1.4c0.9-2.7,0-4.5-2.4-5.6c-1.4-0.6-3.9-1-6.9-1h-15.3L193.6,26.6z"/>
	<path d="M243.9,22.5h12.3l-1.3,4.1h-20.1l5.4-17.8h7.8L243.9,22.5z"/>
	<path d="M279.7,15.9h12.4l-1,3.3h-12.4l-1.1,3.4h13.6l-1.2,3.9h-21.4L274,8.8h21.1l-1.2,3.9h-13.3L279.7,15.9z"/>
	<path d="M315.4,17.9l1.5-5h5.8c2.9,0,3.4,0.4,2.8,2.2c-0.4,1.3-0.7,1.9-1.2,2.3c-0.5,0.4-1.4,0.6-2.8,0.6L315.4,17.9L315.4,17.9z
		 M304.9,26.6h7.8l1.5-4.7h5.8c2.4,0,3.1,0.6,2.6,2.4l-0.7,2.4h8l1-3.2c0.7-2.3-0.6-3.4-4.2-3.4l0-0.2c2.1-0.3,2.8-0.4,3.7-0.8
		c1.8-0.7,2.7-1.9,3.5-4.6c0.9-2.7,0.2-4.1-2.2-4.9c-1.3-0.4-3.1-0.6-6.5-0.6h-14.7L304.9,26.6z"/>
	<path d="M73.4,36.5h-3.1l0.6-2.1c0.1-0.4,0.3-1,0.6-1.7l0.1-0.3l0.1-0.3l0.1-0.2l0.1-0.3l0.1-0.3l0.1-0.3h-0.1l-0.2,0.3l-0.2,0.3
		c-1.2,1.4-0.4,0.6-2.3,2.7l-1.9,2.2h-2.7l-0.6-2.2c-0.5-2-0.3-1.3-0.7-3.2h-0.1l0,0.3l-0.1,0.3l0,0.3l-0.1,0.2l0,0.3
		c-0.2,1-0.3,1.5-0.5,1.9L62,36.5H59l2.2-7.1H66l0.4,2c0.1,0.4,0.2,0.9,0.2,1.2c0,0,0,0.2,0.1,0.4c0,0.3,0,0.1,0,0.4l0,0.2l0,0.2H67
		l0.4-0.6l0.2-0.2c0.5-0.7,0.3-0.4,0.6-0.8c0.2-0.2,0.4-0.5,0.6-0.8l1.7-2h5L73.4,36.5z"/>
	<path d="M96.7,32.3c0.1-0.4,0.2-0.6,0.4-0.8c0.4-0.4,0.8-0.6,2.3-0.6c1.3,0,1.7,0.1,1.8,0.4c0.1,0.2,0.1,0.5-0.2,1.5
		c-0.3,0.9-0.4,1.2-0.6,1.5c-0.4,0.4-0.9,0.6-2,0.6c-2.2,0-2.3-0.1-1.8-1.9c0,0,0.1-0.2,0.2-0.5V32.3z M99.9,29.4
		c-0.7,0-1.5,0-2.1,0.1c-1.1,0.1-2.2,0.4-3,0.9c-0.8,0.5-1.2,1.1-1.8,3.1c-0.2,0.7-0.3,1.1-0.3,1.4c0,0.6,0.4,1.1,1.1,1.4
		c0.7,0.3,1.6,0.4,3.5,0.4c1.9,0,3-0.1,3.9-0.4c1.1-0.3,1.7-0.8,2.2-1.5c0.2-0.4,0.3-0.7,0.7-1.8c0.1-0.2,0.2-0.6,0.2-0.8
		c0.1-0.5,0.2-0.7,0.1-0.9c0-0.7-0.5-1.2-1.4-1.5C102.4,29.4,101.6,29.4,99.9,29.4z"/>
	<path d="M127,36.5h-3.1l1.7-5.4h-2.9l0.5-1.6h9.2l-0.5,1.6h-3.2L127,36.5z"/>
	<path d="M152.5,32.3c0.1-0.4,0.2-0.6,0.4-0.8c0.4-0.4,0.8-0.6,2.3-0.6c1.3,0,1.7,0.1,1.8,0.4c0.1,0.2,0.1,0.5-0.2,1.5
		c-0.2,0.9-0.4,1.2-0.6,1.5c-0.4,0.4-0.8,0.6-2,0.6c-2.2,0-2.3-0.1-1.8-1.9c0,0,0.1-0.2,0.2-0.5L152.5,32.3z M155.8,29.4
		c-0.7,0-1.5,0-2.1,0.1c-1.1,0.1-2.2,0.4-3,0.9c-0.8,0.5-1.2,1.1-1.8,3.1c-0.2,0.7-0.3,1.1-0.3,1.4c0,0.6,0.4,1.1,1.1,1.4
		c0.7,0.3,1.6,0.4,3.5,0.4c1.9,0,3-0.1,3.9-0.4c1.1-0.3,1.7-0.8,2.2-1.5c0.2-0.4,0.4-0.7,0.7-1.8c0.1-0.2,0.2-0.6,0.2-0.8
		c0.1-0.5,0.2-0.7,0.1-0.9c0-0.7-0.5-1.2-1.4-1.5C158.2,29.4,157.5,29.4,155.8,29.4z"/>
	<path d="M181.7,33l0.6-2h2.3c1.1,0,1.3,0.1,1.1,0.9c-0.2,0.5-0.3,0.8-0.4,0.9c-0.2,0.2-0.6,0.2-1.1,0.2L181.7,33L181.7,33z
		 M177.6,36.5h3.1l0.6-1.9h2.3c1,0,1.3,0.2,1,0.9l-0.3,0.9h3.2l0.4-1.3c0.3-0.9-0.2-1.3-1.7-1.4l0-0.1c0.8-0.1,1.1-0.2,1.5-0.3
		c0.7-0.3,1.1-0.8,1.4-1.8c0.3-1.1,0.1-1.6-0.9-1.9c-0.5-0.2-1.3-0.2-2.6-0.2h-5.9L177.6,36.5z"/>
	<path d="M214.2,31.6l0-0.1c0.2-0.6-0.1-0.7-1.5-0.7c-1.5,0-1.9,0.1-2,0.7c-0.1,0.4,0,0.6,0.5,0.6c0.1,0-0.2,0,2,0.1
		c1.1,0,1.5,0.1,2,0.2c1.5,0.2,1.9,0.7,1.5,1.9c-0.3,1-0.6,1.5-1.4,1.8c-0.9,0.4-1.9,0.5-4.1,0.5c-3.3,0-4.3-0.2-4.6-0.9
		c-0.1-0.3-0.1-0.6,0.1-1.4h3l0,0.1c-0.1,0.4,0,0.5,0.2,0.6c0.3,0.1,0.4,0.1,1.5,0.1c1,0,1.1,0,1.3,0c0.5-0.1,0.7-0.3,0.9-0.6
		c0.1-0.4,0-0.5-0.4-0.6c-0.1,0-0.4,0-0.9-0.1h-0.4l-0.4,0h-0.4c-1.9-0.1-2.5-0.2-3-0.4c-0.8-0.3-0.9-0.8-0.6-1.8
		c0.2-0.9,0.7-1.4,1.5-1.7c0.9-0.3,1.9-0.4,4.1-0.4c2.2,0,3,0.1,3.6,0.4c0.6,0.3,0.7,0.8,0.5,1.5c0,0,0,0.2-0.1,0.3
		C217.1,31.6,214.2,31.6,214.2,31.6z"/>
	<path d="M238.9,33l0.6-2.1h1.9h0.4c0.9,0,1.1,0.3,0.9,1.1c-0.2,0.6-0.4,0.8-0.7,0.9c-0.2,0.1-0.2,0.1-1.2,0.1H238.9z M234.7,36.5
		h3.1l0.6-1.8h1.9h0.2h0.2h0.2h0.4h0.4c1.1,0,0.7,0,1.1,0c0.8-0.1,1.5-0.3,2-0.7c0.5-0.4,0.8-0.9,1.1-1.9c0.2-0.7,0.2-1.2,0.1-1.5
		c-0.3-0.6-0.9-0.9-2-1c-0.4,0-0.4,0-1.3,0h-1.3h-4.5L234.7,36.5z"/>
	<path d="M267.2,32.3c0.1-0.4,0.2-0.6,0.4-0.8c0.4-0.4,0.9-0.6,2.3-0.6c1.3,0,1.6,0.1,1.8,0.4c0.1,0.2,0.1,0.5-0.2,1.5
		c-0.3,0.9-0.4,1.2-0.6,1.5c-0.4,0.4-0.8,0.6-2,0.6c-2.2,0-2.3-0.1-1.8-1.9c0,0,0.1-0.2,0.2-0.5V32.3z M270.4,29.4
		c-0.7,0-1.5,0-2.1,0.1c-1.1,0.1-2.3,0.4-3,0.9c-0.8,0.5-1.2,1.1-1.8,3.1c-0.2,0.7-0.3,1.1-0.3,1.4c0,0.6,0.4,1.1,1.1,1.4
		c0.7,0.3,1.6,0.4,3.5,0.4c1.9,0,3-0.1,3.9-0.4c1.1-0.3,1.7-0.8,2.2-1.5c0.2-0.4,0.4-0.7,0.7-1.8c0.1-0.2,0.2-0.6,0.2-0.8
		c0.1-0.5,0.2-0.7,0.1-0.9c0-0.7-0.5-1.2-1.4-1.5C272.9,29.4,272.1,29.4,270.4,29.4z"/>
	<path d="M296.4,33l0.6-2h2.3c1.1,0,1.3,0.1,1.1,0.9c-0.2,0.5-0.3,0.8-0.5,0.9c-0.2,0.2-0.6,0.2-1.1,0.2L296.4,33L296.4,33z
		 M292.2,36.5h3.1l0.6-1.9h2.3c1,0,1.2,0.2,1,0.9l-0.3,0.9h3.2l0.4-1.3c0.3-0.9-0.2-1.3-1.7-1.4l0-0.1c0.9-0.1,1.1-0.2,1.5-0.3
		c0.7-0.3,1.1-0.8,1.4-1.8c0.3-1.1,0.1-1.6-0.9-1.9c-0.5-0.2-1.3-0.2-2.6-0.2h-5.9L292.2,36.5z"/>
	<path d="M326.3,36.5h-3.1l1.7-5.4h-3l0.5-1.6h9.2l-0.5,1.6h-3.1L326.3,36.5z"/>
</g>
</svg>
