<svg class="m-svg-map" x="0px" y="0px" width="80px" height="80px" viewBox="0 0 50 80" enable-background="new 0 0 100 100" xml:space="preserve" xmlns="http://www.w3.org/2000/svg">
<defs>
<link href="svg-map.css" type="text/css" rel="stylesheet" xmlns="http://www.w3.org/1999/xhtml"/>
</defs>
        <g>
<path d="M32.327,30.688c0.309,0.367,0.293,0.937-0.11,1.276v0.004l-1.94,1.26c-1.248,0.854-6.554,1.785-13.725-6.988
	c-6.91-8.453-4.89-13.11-3.952-14.178l1.614-1.662c0.377-0.317,0.949-0.276,1.271,0.115l4.195,5.016
	c0.309,0.371,0.294,0.939-0.109,1.281v0.004l-1.882,1.34c-0.746,0.731-0.107,1.889,0.649,3.008l3.577,4.27
	c1.663,1.627,2.58,2.377,3.383,1.848l1.562-1.729c0.382-0.317,0.95-0.278,1.271,0.115l4.196,5.014V30.688z M44.125,22.062
	c0,12.182-22.063,47.971-22.063,47.971S0,34.244,0,22.062C0,9.875,9.881,0,22.062,0C34.248,0,44.125,9.875,44.125,22.062z
	 M39.132,22.062c0-9.412-7.657-17.074-17.07-17.074c-9.413,0-17.07,7.662-17.07,17.074c0,9.412,7.657,17.068,17.07,17.068
	C31.475,39.13,39.132,31.474,39.132,22.062z"/>
            </g>
</svg>