<svg class="m-svg-service" x="0px" y="0px" width="70px" height="70px" viewBox="0 0 80 80" enable-background="new 0 0 150 150" xml:space="preserve" xmlns="http://www.w3.org/2000/svg">
<defs><link href="svg-service.css" type="text/css" rel="stylesheet" xmlns="http://www.w3.org/1999/xhtml"/></defs>
                    <g transform="translate(13,13) scale(0.5)">
                    <path d="M36.227,57.813l1.541,1.542L13.405,83.716l-7.194-7.194l24.361-24.362l1.542,1.541l23.745-23.745l-0.864-0.863l1.233-1.233
	l0.863,0.864l4.112,4.112l0.678,0.678l-1.232,1.232l-0.679-0.678L36.227,57.813z M36.843,45.888l4.122-4.122L46.7,36.03l4.122-4.122
	l-1.542-1.541l-4.122,4.122c-1.61-0.928-3.699-0.72-5.077,0.658s-1.586,3.466-0.657,5.077l-4.123,4.122L36.843,45.888z
	 M58.018,39.104l-0.616-0.617L43.422,52.467l2.158,2.159l0.012-0.013c0.023,0.029,0.039,0.063,0.065,0.09
	c0.639,0.639,1.962,0.351,2.956-0.643c0.993-0.993,1.28-2.316,0.642-2.955c-0.026-0.026-0.061-0.042-0.089-0.065l4.277-4.277
	c11.407,9.147,19.891,7.657,19.891,7.657L59.56,40.646L58.018,39.104z M70.353,17.105l-1.542,1.542l-2.364-2.363l-7.4,7.4
	l2.363,2.364l-2.672,2.673l4.215,4.215l3.289-3.289l4.421,6.064L93.07,58.12l0.719-5.036C90.5,33.759,70.353,17.105,70.353,17.105z"
	/>
                        </g>
</svg>