<svg class="m-svg-service" x="0px" y="0px" width="70px" height="70px" viewBox="0 0 80 80" enable-background="new 0 0 150 150" xml:space="preserve" xmlns="http://www.w3.org/2000/svg">
<defs>
<link href="svg-service.css" type="text/css" rel="stylesheet" xmlns="http://www.w3.org/1999/xhtml"/>
</defs>
                    <g transform="translate(22,13) scale(2)">
	                    <rect x="5.462" y="22.551" width="5.782" height="2.147"/>
                        <path d="M10.524,1.347C10.383,0.731,9.466,0,8.353,0s-2.03,0.731-2.171,1.347C4.234,1.568,2.87,2.051,2.87,2.435 c3.972,0,6.562,0,10.965,0C13.835,2.051,12.472,1.568,10.524,1.347z"/>
	                    <path x="20px" fill="none" d="M0.918,4.881c0.258,1.175,1.171,4.367,3.66,5.745C3.79,8.934,3.224,6.862,2.99,4.881H0.918z"/>
	                    <path x="20px" fill="none" d="M12.127,10.627c2.495-1.377,3.405-4.572,3.662-5.746h-2.073C13.481,6.863,12.916,8.935,12.127,10.627z"/>
	                    <path x="20px" d="M13.79,4.104c0.029-0.393,0.045-0.781,0.045-1.157c-3.972,0-6.562,0-10.965,0c0,0.377,0.016,0.764,0.045,1.157H0
		                l0.063,0.443c0.01,0.067,0.242,1.652,1.084,3.36c0.963,1.95,2.337,3.252,4.008,3.819c0.656,1.105,1.419,1.941,2.247,2.314
		                c0.527,2.154,0.469,3.493-0.173,5.827c-1.039,0.372-1.768,1.243-1.768,2.259c2.393,0,1.622,0,5.782,0
		                c0-1.016-0.729-1.887-1.768-2.259c-0.643-2.333-0.7-3.673-0.173-5.827c0.828-0.372,1.591-1.209,2.247-2.314
		                c1.671-0.567,3.045-1.869,4.008-3.819c0.843-1.708,1.075-3.293,1.084-3.36l0.063-0.443H13.79z M0.918,4.881H2.99
		                c0.234,1.981,0.799,4.053,1.588,5.745C2.089,9.248,1.176,6.056,0.918,4.881z M8.353,7.768c-1.303,0-2.358-0.635-2.358-1.418
		                S7.05,4.932,8.353,4.932s2.358,0.635,2.358,1.418S9.655,7.768,8.353,7.768z M12.127,10.627c0.789-1.692,1.355-3.765,1.589-5.746
		                h2.073C15.532,6.056,14.622,9.25,12.127,10.627z"/>
                    </g>
                </svg>